<svg width="640" height="480" xmlns="http://www.w3.org/2000/svg" xmlns:svg="http://www.w3.org/2000/svg" xmlns:xlink="http://www.w3.org/1999/xlink">
 <!-- Created with SVG-edit - http://svg-edit.googlecode.com/ -->
 <defs>
  <symbol viewBox="0 0 467.211 467.211" id="svg_1" xmlns="http://www.w3.org/2000/svg" xmlns:xlink="http://www.w3.org/1999/xlink">
   <g id="svg_4">
    <path id="svg_8" d="m413.917,96.775l-360.622,0c-6.369,0 -11.551,5.181 -11.551,11.55l0,213.182c0,6.369 5.182,11.55 11.551,11.55l360.622,0c6.368,0 11.55,-5.181 11.55,-11.55l0,-213.181c0,-6.369 -5.182,-11.551 -11.55,-11.551zm1.55,224.732c0,0.855 -0.695,1.55 -1.55,1.55l-360.622,0c-0.855,0 -1.551,-0.696 -1.551,-1.55l0,-213.181c0,-0.855 0.695,-1.55 1.551,-1.55l360.622,0c0.854,0 1.55,0.696 1.55,1.55l0,213.181z" fill="#f3b733"/>
    <path id="svg_9" d="m459.711,340.558l-11.744,0l0,-237.715c0,-15.752 -12.815,-28.568 -28.568,-28.568l-371.586,0c-15.753,0 -28.568,12.815 -28.568,28.568l0,237.714l-11.745,0c-4.143,0 -7.5,3.358 -7.5,7.5l0,20.605c0,13.384 10.889,24.272 24.272,24.272l418.666,0c13.384,0 24.272,-10.889 24.272,-24.272l0,-20.605c0.001,-4.141 -3.356,-7.499 -7.499,-7.499zm-425.467,-237.715c0,-7.481 6.087,-13.568 13.568,-13.568l371.586,0c7.481,0 13.568,6.086 13.568,13.568l0,237.714l-398.722,0l0,-237.714zm177.361,252.715l44,0l0,3.922c0,1.755 -1.428,3.184 -3.184,3.184l-37.633,0c-1.756,0 -3.184,-1.428 -3.184,-3.184l0,-3.922l0.001,0zm240.607,13.105c0,5.113 -4.159,9.272 -9.272,9.272l-418.667,0c-5.113,0 -9.272,-4.16 -9.272,-9.272l0,-13.105l11.744,0l174.861,0l0,3.922c0,7.27 5.914,13.184 13.184,13.184l37.633,0c7.27,0 13.184,-5.914 13.184,-13.184l0,-3.922l174.861,0l11.744,0l0,13.105z" fill="#f3b733"/>
   </g>
  </symbol>
  <symbol id="svg_5" viewBox="0 0 470 470" xmlns="http://www.w3.org/2000/svg" xmlns:xlink="http://www.w3.org/1999/xlink">
   <g id="svg_10">
    <g id="svg_11">
     <path id="svg_12" d="m252.5,223l-34.9,0c-14.5,0 -26.3,-11.8 -26.3,-26.3s11.8,-26.3 26.3,-26.3l61.6,0c6.6,0 12,-5.4 12,-12s-5.4,-12 -12,-12l-32.1,0l0,-24.5c0,-6.6 -5.4,-12 -12,-12s-12,5.4 -12,12l0,24.5l-5.5,0c-27.7,0 -50.3,22.6 -50.3,50.3s22.6,50.3 50.3,50.3l34.9,0c14.5,0 26.3,11.8 26.3,26.3s-11.8,26.3 -26.3,26.3l-62.7,0c-6.6,0 -12,5.4 -12,12s5.4,12 12,12l33.2,0l0,25c0,6.6 5.4,12 12,12s12,-5.4 12,-12l0,-25l5.8,0c0.1,0 0.2,0 0.3,0c27.4,-0.4 49.6,-22.8 49.6,-50.3c0,-27.8 -22.5,-50.3 -50.2,-50.3z" fill="#f3b733"/>
     <path id="svg_13" d="m401.2,68.8c-44.4,-44.4 -103.4,-68.8 -166.2,-68.8s-121.8,24.4 -166.2,68.8s-68.8,103.4 -68.8,166.2s24.4,121.8 68.8,166.2s103.4,68.8 166.2,68.8s121.8,-24.4 166.2,-68.8s68.8,-103.4 68.8,-166.2s-24.4,-121.8 -68.8,-166.2zm-166.2,377.2c-116.3,0 -211,-94.7 -211,-211s94.7,-211 211,-211s211,94.7 211,211s-94.7,211 -211,211z" fill="#f3b733"/>
    </g>
   </g>
   <g id="svg_14"/>
   <g id="svg_15"/>
   <g id="svg_16"/>
   <g id="svg_17"/>
   <g id="svg_18"/>
   <g id="svg_19"/>
   <g id="svg_20"/>
   <g id="svg_21"/>
   <g id="svg_22"/>
   <g id="svg_23"/>
   <g id="svg_24"/>
   <g id="svg_25"/>
   <g id="svg_26"/>
   <g id="svg_27"/>
   <g id="svg_28"/>
  </symbol>
 </defs>
 <g>
  <title>Layer 1</title>
  <use x="-38.640719" y="-51.614832" id="svg_2" xlink:href="#svg_1" transform="matrix(1.2729005742018538,0,0,1.3638258824305545,-38.062488997689705,-19.04703215137131) "/>
  <g id="svg_3"/>
  <use id="svg_6" xlink:href="#svg_5" transform="matrix(0.3598525208113514,0,0,0.35222700208281305,2.222919813082598,26.741436779499026) " y="310.175387" x="560.135728"/>
  <g id="svg_7"/>
 </g>
</svg>