<?xml version="1.0" standalone="no"?>
<!DOCTYPE svg PUBLIC "-//W3C//DTD SVG 20010904//EN"
 "http://www.w3.org/TR/2001/REC-SVG-20010904/DTD/svg10.dtd">
<svg version="1.0" xmlns="http://www.w3.org/2000/svg"
 width="632.000000pt" height="458.000000pt" viewBox="0 0 632.000000 458.000000"
 preserveAspectRatio="xMidYMid meet">
<metadata>
Created by potrace 1.13, written by Peter Selinger 2001-2015
</metadata>
<g transform="translate(0.000000,458.000000) scale(0.100000,-0.100000)"
fill="#000000" stroke="none">
<path d="M1830 2685 l0 -1335 1335 0 1335 0 -2 1333 -3 1332 -1332 3 -1333 2
0 -1335z m2480 -10 l0 -1115 -1145 0 -1145 0 0 1115 0 1115 1145 0 1145 0 0
-1115z"/>
<path d="M2100 2675 l0 -1035 1049 0 1048 0 7 61 c8 80 8 948 -1 1542 l-6 467
-1049 0 -1048 0 0 -1035z m1402 368 c26 -13 34 -28 40 -81 3 -20 8 -16 46 33
l43 55 115 0 c78 0 114 -4 114 -11 0 -7 -55 -76 -122 -155 -313 -367 -398
-482 -398 -538 0 -51 16 -66 70 -66 60 0 157 47 284 140 48 34 89 60 92 58 8
-9 -99 -100 -160 -137 -105 -63 -171 -84 -252 -79 -92 6 -139 33 -166 96 -20
44 -21 107 -3 155 13 31 -10 18 -100 -60 -102 -87 -218 -166 -272 -184 -52
-17 -180 -6 -229 19 -83 43 -116 100 -116 200 1 179 179 338 539 481 228 91
392 116 475 74z"/>
<path d="M3325 3026 c-114 -38 -223 -105 -372 -230 -181 -151 -291 -289 -314
-392 -11 -50 -11 -57 8 -82 46 -62 154 -52 274 27 193 127 532 458 569 556 23
60 22 84 -4 110 -20 20 -35 25 -73 24 -26 0 -66 -6 -88 -13z"/>
<path d="M1475 1005 c-155 -40 -225 -143 -164 -242 40 -64 100 -81 363 -103
72 -6 142 -18 158 -26 63 -32 42 -115 -39 -155 -42 -21 -62 -24 -168 -24 -143
0 -239 26 -277 75 -13 17 -28 26 -34 22 -13 -8 -64 -81 -64 -92 0 -4 18 -10
41 -14 22 -3 77 -17 122 -30 268 -77 512 -14 543 141 8 41 -25 112 -63 135
-35 20 -113 35 -223 43 -138 10 -229 24 -260 40 -25 13 -30 22 -30 51 0 49 14
70 63 96 38 21 56 23 182 23 123 0 146 -3 188 -22 26 -12 50 -29 53 -38 6 -14
8 -14 24 0 18 17 46 73 39 79 -2 2 -47 13 -99 26 -121 28 -274 35 -355 15z"/>
<path d="M357 994 c-3 -3 -3 -12 -1 -19 3 -7 -10 -46 -29 -87 -42 -91 -221
-412 -252 -454 -13 -17 -21 -34 -18 -38 8 -7 143 -8 143 -1 0 3 -6 14 -12 25
-11 17 -8 28 19 77 l32 58 191 3 191 2 25 -55 c15 -32 24 -67 22 -80 -3 -15 0
-26 9 -29 20 -8 138 -7 146 0 4 4 -6 21 -22 39 -30 35 -185 310 -251 447 -23
47 -38 90 -34 100 5 16 -2 18 -74 18 -43 0 -81 -3 -85 -6z m154 -228 c49 -94
59 -120 48 -127 -19 -12 -256 -11 -264 1 -8 13 24 83 83 187 37 64 49 80 59
70 6 -7 40 -65 74 -131z"/>
<path d="M2465 983 c27 -69 26 -490 -1 -547 -18 -38 -7 -46 61 -46 59 0 78 9
65 30 -6 8 -10 70 -10 138 l0 122 228 -2 227 -3 3 -120 c2 -105 1 -121 -15
-133 -16 -11 -16 -14 -3 -22 17 -11 100 -13 124 -4 12 5 13 10 5 26 -7 13 -10
115 -7 299 l3 279 -64 0 c-57 0 -62 -2 -55 -17 5 -10 9 -67 9 -128 l0 -110
-229 -3 -228 -2 3 130 4 130 -64 0 c-56 0 -62 -2 -56 -17z"/>
<path d="M3700 991 c0 -6 5 -13 10 -16 14 -8 13 -505 0 -541 -6 -15 -8 -30 -4
-33 3 -3 133 -8 288 -11 204 -4 287 -8 298 -17 22 -19 28 -6 28 55 0 48 -2 53
-17 46 -10 -5 -123 -10 -251 -12 l-233 -3 3 253 c2 139 7 261 12 271 7 15 1
17 -63 17 -39 0 -71 -4 -71 -9z"/>
<path d="M4795 983 c14 -35 24 -161 24 -298 -1 -168 -10 -253 -30 -266 -23
-15 8 -29 68 -29 69 0 88 7 71 28 -10 11 -13 78 -13 271 0 141 3 268 8 284 l7
27 -71 0 c-64 0 -70 -2 -64 -17z"/>
<path d="M5485 983 c4 -10 9 -106 12 -213 4 -182 -4 -321 -22 -362 -6 -16 -1
-18 51 -18 73 0 95 11 71 35 -15 14 -17 45 -17 242 0 142 4 223 10 221 18 -6
340 -312 402 -382 52 -58 60 -71 50 -86 -9 -14 -8 -19 4 -24 20 -8 149 -8 156
0 3 3 -1 18 -8 34 -12 23 -14 78 -12 282 2 139 7 261 12 271 7 15 2 17 -58 17
-66 0 -67 0 -55 -22 15 -28 23 -270 12 -368 l-9 -75 -212 210 c-180 178 -212
213 -207 232 5 23 4 23 -91 23 -88 0 -96 -2 -89 -17z"/>
</g>
</svg>
