<?xml version="1.0" standalone="no"?>
<!DOCTYPE svg PUBLIC "-//W3C//DTD SVG 20010904//EN"
 "http://www.w3.org/TR/2001/REC-SVG-20010904/DTD/svg10.dtd">
<svg version="1.0" xmlns="http://www.w3.org/2000/svg"
 width="549.000000pt" height="549.000000pt" viewBox="0 0 549.000000 549.000000"
 preserveAspectRatio="xMidYMid meet">
<metadata>
Created by potrace 1.13, written by Peter Selinger 2001-2015
</metadata>
<g transform="translate(0.000000,549.000000) scale(0.100000,-0.100000)"
fill="#000000" stroke="none">
<path d="M1500 3310 l0 -1000 1000 0 1000 0 0 1000 0 1000 -1000 0 -1000 0 0
-1000z m1860 -5 l0 -835 -860 0 -860 0 0 835 0 835 860 0 860 0 0 -835z"/>
<path d="M1728 4082 l-28 -3 0 -774 0 -774 789 -1 789 -1 3 33 c2 18 3 367 1
775 l-2 743 -763 2 c-419 2 -774 2 -789 0z m1011 -493 c35 -12 55 -47 44 -76
-8 -22 -3 -18 36 31 l31 39 90 1 c50 1 90 -1 90 -4 0 -5 -98 -121 -214 -254
-79 -91 -162 -201 -176 -235 -7 -17 -10 -41 -6 -55 15 -62 121 -32 260 74 36
27 68 50 71 50 32 0 -104 -107 -185 -144 -88 -41 -186 -31 -234 23 -27 30 -33
109 -11 150 13 26 -2 16 -82 -54 -54 -47 -126 -100 -160 -117 -54 -27 -70 -30
-126 -26 -118 7 -184 77 -175 184 11 135 157 256 433 359 153 57 255 74 314
54z"/>
<path d="M2601 3560 c-78 -28 -149 -73 -256 -162 -150 -125 -228 -225 -242
-311 -12 -78 73 -105 173 -54 106 54 367 289 443 400 83 121 28 179 -118 127z"/>
<path d="M1274 2059 c-78 -10 -139 -40 -164 -82 -28 -46 -25 -80 11 -121 35
-41 77 -51 242 -61 121 -6 155 -17 164 -52 14 -59 -45 -102 -153 -111 -96 -7
-244 37 -244 73 0 26 -16 16 -44 -25 -30 -46 -32 -54 -10 -46 9 4 49 -5 90
-19 191 -66 392 -27 425 84 9 32 8 44 -6 74 -26 55 -67 69 -233 78 -156 10
-192 22 -192 66 0 40 17 60 67 80 93 36 288 10 301 -39 4 -18 8 -15 28 18 29
48 29 49 2 50 -13 1 -48 9 -78 17 -76 21 -134 25 -206 16z"/>
<path d="M389 2041 c8 -5 11 -17 7 -28 -14 -44 -197 -379 -216 -395 -11 -9
-20 -19 -20 -22 0 -3 30 -6 68 -6 62 1 66 2 47 16 -20 15 -20 15 6 62 l26 47
141 3 141 3 27 -53 c17 -33 22 -54 15 -56 -6 -2 -11 -8 -11 -13 0 -5 29 -9 65
-9 36 0 65 3 65 6 0 3 -9 13 -20 22 -21 18 -220 385 -220 407 0 7 6 16 13 18
6 3 -24 6 -68 6 -48 0 -75 -3 -66 -8z m116 -158 c28 -54 52 -101 53 -105 2 -5
-46 -8 -107 -8 -61 0 -111 2 -111 5 0 13 101 205 108 205 4 0 30 -44 57 -97z"/>
<path d="M1974 2034 c23 -23 24 -412 1 -420 -33 -13 -12 -24 45 -24 33 0 60 4
60 10 0 6 -4 10 -10 10 -6 0 -10 40 -10 100 l0 100 173 -2 172 -3 3 -93 c2
-76 0 -93 -13 -98 -33 -13 -12 -24 45 -24 33 0 60 4 60 10 0 6 -4 10 -10 10
-15 0 -13 413 2 428 9 9 -2 12 -51 12 -57 0 -61 -1 -46 -16 12 -13 15 -33 13
-98 l-3 -81 -172 -3 -173 -2 0 88 c0 55 4 92 12 100 9 9 -2 12 -51 12 -57 0
-61 -1 -47 -16z"/>
<path d="M2903 2039 c15 -9 17 -30 17 -211 0 -173 -2 -204 -17 -220 -16 -17
-8 -18 210 -18 140 0 228 -4 232 -10 14 -23 25 -7 25 35 0 25 -4 45 -10 45 -5
0 -10 -4 -10 -10 0 -6 -67 -10 -180 -10 l-180 0 0 195 c0 174 2 195 18 204 13
8 -1 10 -53 10 -52 0 -66 -2 -52 -10z"/>
<path d="M3724 2034 c23 -23 24 -412 1 -420 -33 -13 -12 -24 45 -24 33 0 60 4
60 10 0 6 -4 10 -10 10 -6 0 -10 77 -10 210 0 188 2 210 18 219 13 8 0 10 -51
11 -62 0 -67 -1 -53 -16z"/>
<path d="M4233 2039 c15 -9 17 -30 17 -216 0 -184 -2 -207 -17 -219 -16 -12
-10 -13 45 -14 58 0 80 11 47 24 -13 4 -15 34 -15 181 0 96 3 175 6 175 3 0
84 -75 180 -167 159 -153 192 -193 164 -193 -5 0 -10 -4 -10 -10 0 -6 31 -10
72 -10 68 0 70 1 55 18 -15 16 -17 47 -17 220 0 181 2 202 18 211 13 8 1 10
-48 10 -49 0 -61 -2 -47 -10 15 -9 17 -28 17 -175 0 -103 -4 -164 -10 -162
-12 4 -320 310 -320 318 0 3 5 11 12 18 9 9 -8 12 -77 12 -66 -1 -85 -3 -72
-11z"/>
<path d="M5135 1680 c-61 -25 -89 -102 -60 -163 44 -94 187 -84 221 16 33 96
-66 187 -161 147z m102 -25 c12 -8 27 -31 33 -50 33 -100 -78 -178 -151 -106
-23 23 -29 38 -29 71 0 78 86 128 147 85z"/>
</g>
</svg>
